<?xml version="1.0" encoding="iso-8859-1"?>
<!-- Generator: Adobe Illustrator 19.0.0, SVG Export Plug-In . SVG Version: 6.00 Build 0)  -->
<svg version="1.1" id="Capa_1" xmlns="http://www.w3.org/2000/svg" xmlns:xlink="http://www.w3.org/1999/xlink" x="0px" y="0px"
	 viewBox="0 0 496 496" style="enable-background:new 0 0 496 496;" xml:space="preserve">
<g>
	<g>
		<g>
			<path d="M456,128h-80c0-26.472-21.528-48-48-48s-48,21.528-48,48H175.848C185.936,114.608,192,98.024,192,80
				c0-44.112-35.888-80-80-80S32,35.888,32,80c0,18.024,6.064,34.608,16.152,48H40c-22.056,0-40,17.944-40,40v240
				c0,22.056,17.944,40,40,40h88v32H96v16h32h240h32v-16h-32v-32h88c22.056,0,40-17.944,40-40V168C496,145.944,478.056,128,456,128z
				 M328,96c17.648,0,32,14.352,32,32s-14.352,32-32,32s-32-14.352-32-32S310.352,96,328,96z M282.8,144
				c2.192,6.168,5.6,11.752,9.952,16.472l-66.736,73.408C216.152,227.664,204.504,224,192,224c-7.032,0-13.776,1.184-20.112,3.288
				l-27.056-74.416c5.408-2.448,10.48-5.488,15.168-9.024V144H282.8z M240,288c0,26.472-21.528,48-48,48s-48-21.528-48-48
				s21.528-48,48-48S240,261.528,240,288z M48,80c0-35.288,28.712-64,64-64s64,28.712,64,64s-28.712,64-64,64
				C76.712,144,48,115.288,48,80z M352,480H144v-32h208V480z M480,408c0,13.232-10.768,24-24,24h-88H128H40
				c-13.232,0-24-10.768-24-24v-8h464V408z M480,384H16V168c0-13.232,10.768-24,24-24h24v-0.152C77.392,153.936,93.976,160,112,160
				c6.072,0,11.968-0.744,17.656-2.032l27.736,76.272C139.736,245.648,128,265.464,128,288c0,35.288,28.712,64,64,64
				c35.288,0,64-28.712,64-64c0-17.024-6.72-32.472-17.6-43.952l67.016-73.72C312.152,173.944,319.84,176,328,176
				c10.672,0,20.504-3.544,28.48-9.448l47.776,41.808C401.624,213,400,218.288,400,224c0,17.648,14.352,32,32,32s32-14.352,32-32
				s-14.352-32-32-32c-6.12,0-11.784,1.816-16.648,4.8l-47.728-41.76c2.32-3.392,4.176-7.104,5.576-11.04H456
				c13.232,0,24,10.768,24,24V384z M416,224c0-8.824,7.176-16,16-16c8.824,0,16,7.176,16,16c0,8.824-7.176,16-16,16
				C423.176,240,416,232.824,416,224z"/>
			<rect x="448" y="352" width="16" height="16"/>
			<rect x="368" y="352" width="64" height="16"/>
			<rect x="368" y="320" width="96" height="16"/>
		</g>
	</g>
</g>
<g>
</g>
<g>
</g>
<g>
</g>
<g>
</g>
<g>
</g>
<g>
</g>
<g>
</g>
<g>
</g>
<g>
</g>
<g>
</g>
<g>
</g>
<g>
</g>
<g>
</g>
<g>
</g>
<g>
</g>
</svg>
